<?xml version="1.0" encoding="UTF-8" standalone="no"?>
<!DOCTYPE svg PUBLIC "-//W3C//DTD SVG 1.0//EN" "http://www.w3.org/TR/2001/PR-SVG-20010719/DTD/svg10.dtd">
<svg width="18cm" height="13cm" viewBox="57 38 347 249" xmlns="http://www.w3.org/2000/svg" xmlns:xlink="http://www.w3.org/1999/xlink">
  <line style="fill: none; fill-opacity:0; stroke-width: 0.02; stroke: #000000" x1="116.706" y1="166.681" x2="82.7149" y2="241.663"/>
  <line style="fill: none; fill-opacity:0; stroke-width: 0.02; stroke: #000000" x1="126.608" y1="166.684" x2="165.497" y2="242.212"/>
  <g>
    <rect style="fill: #d9d9cd" x="157.026" y="242.168" width="33" height="27.5"/>
    <rect style="fill: none; fill-opacity:0; stroke-width: 0.02; stroke: #000000" x="157.026" y="242.168" width="33" height="27.5"/>
    <rect style="fill: none; fill-opacity:0; stroke-width: 0.02; stroke: #000000" x="157.026" y="242.168" width="33" height="27.5"/>
    <rect style="fill: #a1a1a1" x="158.859" y="244.001" width="29.3333" height="22"/>
    <rect style="fill: none; fill-opacity:0; stroke-width: 0.02; stroke: #000000" x="158.859" y="244.001" width="29.3333" height="22"/>
    <rect style="fill: none; fill-opacity:0; stroke-width: 0.02; stroke: #000000" x="158.859" y="244.001" width="29.3333" height="22"/>
    <polygon style="fill: #d9d9cd" points="162.526,269.668 184.526,269.668 179.026,271.501 168.026,271.501 "/>
    <polygon style="fill: none; fill-opacity:0; stroke-width: 0.02; stroke: #000000" points="162.526,269.668 184.526,269.668 179.026,271.501 168.026,271.501 "/>
    <polygon style="fill: none; fill-opacity:0; stroke-width: 0.02; stroke: #000000" points="162.526,269.668 184.526,269.668 179.026,271.501 168.026,271.501 "/>
    <rect style="fill: #d9d9cd" x="168.026" y="271.501" width="11" height="1.83333"/>
    <rect style="fill: none; fill-opacity:0; stroke-width: 0.02; stroke: #000000" x="168.026" y="271.501" width="11" height="1.83333"/>
    <rect style="fill: none; fill-opacity:0; stroke-width: 0.02; stroke: #000000" x="168.026" y="271.501" width="11" height="1.83333"/>
    <rect style="fill: #d9d9cd" x="162.526" y="273.334" width="22" height="1.83333"/>
    <rect style="fill: none; fill-opacity:0; stroke-width: 0.02; stroke: #000000" x="162.526" y="273.334" width="22" height="1.83333"/>
    <rect style="fill: none; fill-opacity:0; stroke-width: 0.02; stroke: #000000" x="162.526" y="273.334" width="22" height="1.83333"/>
  </g>
  <g>
    <rect style="fill: #d9d9cd" x="158.504" y="198.009" width="33" height="27.5"/>
    <rect style="fill: none; fill-opacity:0; stroke-width: 0.02; stroke: #000000" x="158.504" y="198.009" width="33" height="27.5"/>
    <rect style="fill: none; fill-opacity:0; stroke-width: 0.02; stroke: #000000" x="158.504" y="198.009" width="33" height="27.5"/>
    <rect style="fill: #a1a1a1" x="160.338" y="199.842" width="29.3333" height="22"/>
    <rect style="fill: none; fill-opacity:0; stroke-width: 0.02; stroke: #000000" x="160.338" y="199.842" width="29.3333" height="22"/>
    <rect style="fill: none; fill-opacity:0; stroke-width: 0.02; stroke: #000000" x="160.338" y="199.842" width="29.3333" height="22"/>
    <polygon style="fill: #d9d9cd" points="164.004,225.509 186.004,225.509 180.504,227.342 169.504,227.342 "/>
    <polygon style="fill: none; fill-opacity:0; stroke-width: 0.02; stroke: #000000" points="164.004,225.509 186.004,225.509 180.504,227.342 169.504,227.342 "/>
    <polygon style="fill: none; fill-opacity:0; stroke-width: 0.02; stroke: #000000" points="164.004,225.509 186.004,225.509 180.504,227.342 169.504,227.342 "/>
    <rect style="fill: #d9d9cd" x="169.504" y="227.342" width="11" height="1.83333"/>
    <rect style="fill: none; fill-opacity:0; stroke-width: 0.02; stroke: #000000" x="169.504" y="227.342" width="11" height="1.83333"/>
    <rect style="fill: none; fill-opacity:0; stroke-width: 0.02; stroke: #000000" x="169.504" y="227.342" width="11" height="1.83333"/>
    <rect style="fill: #d9d9cd" x="164.004" y="229.176" width="22" height="1.83333"/>
    <rect style="fill: none; fill-opacity:0; stroke-width: 0.02; stroke: #000000" x="164.004" y="229.176" width="22" height="1.83333"/>
    <rect style="fill: none; fill-opacity:0; stroke-width: 0.02; stroke: #000000" x="164.004" y="229.176" width="22" height="1.83333"/>
  </g>
  <g>
    <rect style="fill: #d9d9cd" x="108.688" y="241.368" width="33" height="27.5"/>
    <rect style="fill: none; fill-opacity:0; stroke-width: 0.02; stroke: #000000" x="108.688" y="241.368" width="33" height="27.5"/>
    <rect style="fill: none; fill-opacity:0; stroke-width: 0.02; stroke: #000000" x="108.688" y="241.368" width="33" height="27.5"/>
    <rect style="fill: #a1a1a1" x="110.522" y="243.201" width="29.3333" height="22"/>
    <rect style="fill: none; fill-opacity:0; stroke-width: 0.02; stroke: #000000" x="110.522" y="243.201" width="29.3333" height="22"/>
    <rect style="fill: none; fill-opacity:0; stroke-width: 0.02; stroke: #000000" x="110.522" y="243.201" width="29.3333" height="22"/>
    <polygon style="fill: #d9d9cd" points="114.188,268.868 136.188,268.868 130.688,270.701 119.688,270.701 "/>
    <polygon style="fill: none; fill-opacity:0; stroke-width: 0.02; stroke: #000000" points="114.188,268.868 136.188,268.868 130.688,270.701 119.688,270.701 "/>
    <polygon style="fill: none; fill-opacity:0; stroke-width: 0.02; stroke: #000000" points="114.188,268.868 136.188,268.868 130.688,270.701 119.688,270.701 "/>
    <rect style="fill: #d9d9cd" x="119.688" y="270.701" width="11" height="1.83333"/>
    <rect style="fill: none; fill-opacity:0; stroke-width: 0.02; stroke: #000000" x="119.688" y="270.701" width="11" height="1.83333"/>
    <rect style="fill: none; fill-opacity:0; stroke-width: 0.02; stroke: #000000" x="119.688" y="270.701" width="11" height="1.83333"/>
    <rect style="fill: #d9d9cd" x="114.188" y="272.534" width="22" height="1.83333"/>
    <rect style="fill: none; fill-opacity:0; stroke-width: 0.02; stroke: #000000" x="114.188" y="272.534" width="22" height="1.83333"/>
    <rect style="fill: none; fill-opacity:0; stroke-width: 0.02; stroke: #000000" x="114.188" y="272.534" width="22" height="1.83333"/>
  </g>
  <g>
    <rect style="fill: #d9d9cd" x="57.8813" y="198.398" width="33" height="27.5"/>
    <rect style="fill: none; fill-opacity:0; stroke-width: 0.02; stroke: #000000" x="57.8813" y="198.398" width="33" height="27.5"/>
    <rect style="fill: none; fill-opacity:0; stroke-width: 0.02; stroke: #000000" x="57.8813" y="198.398" width="33" height="27.5"/>
    <rect style="fill: #a1a1a1" x="59.7147" y="200.232" width="29.3333" height="22"/>
    <rect style="fill: none; fill-opacity:0; stroke-width: 0.02; stroke: #000000" x="59.7147" y="200.232" width="29.3333" height="22"/>
    <rect style="fill: none; fill-opacity:0; stroke-width: 0.02; stroke: #000000" x="59.7147" y="200.232" width="29.3333" height="22"/>
    <polygon style="fill: #d9d9cd" points="63.3813,225.898 85.3813,225.898 79.8813,227.732 68.8813,227.732 "/>
    <polygon style="fill: none; fill-opacity:0; stroke-width: 0.02; stroke: #000000" points="63.3813,225.898 85.3813,225.898 79.8813,227.732 68.8813,227.732 "/>
    <polygon style="fill: none; fill-opacity:0; stroke-width: 0.02; stroke: #000000" points="63.3813,225.898 85.3813,225.898 79.8813,227.732 68.8813,227.732 "/>
    <rect style="fill: #d9d9cd" x="68.8813" y="227.732" width="11" height="1.83333"/>
    <rect style="fill: none; fill-opacity:0; stroke-width: 0.02; stroke: #000000" x="68.8813" y="227.732" width="11" height="1.83333"/>
    <rect style="fill: none; fill-opacity:0; stroke-width: 0.02; stroke: #000000" x="68.8813" y="227.732" width="11" height="1.83333"/>
    <rect style="fill: #d9d9cd" x="63.3813" y="229.565" width="22" height="1.83333"/>
    <rect style="fill: none; fill-opacity:0; stroke-width: 0.02; stroke: #000000" x="63.3813" y="229.565" width="22" height="1.83333"/>
    <rect style="fill: none; fill-opacity:0; stroke-width: 0.02; stroke: #000000" x="63.3813" y="229.565" width="22" height="1.83333"/>
  </g>
  <g>
    <rect style="fill: #d9d9cd" x="57.4458" y="241.568" width="33" height="27.5"/>
    <rect style="fill: none; fill-opacity:0; stroke-width: 0.02; stroke: #000000" x="57.4458" y="241.568" width="33" height="27.5"/>
    <rect style="fill: none; fill-opacity:0; stroke-width: 0.02; stroke: #000000" x="57.4458" y="241.568" width="33" height="27.5"/>
    <rect style="fill: #a1a1a1" x="59.2791" y="243.401" width="29.3333" height="22"/>
    <rect style="fill: none; fill-opacity:0; stroke-width: 0.02; stroke: #000000" x="59.2791" y="243.401" width="29.3333" height="22"/>
    <rect style="fill: none; fill-opacity:0; stroke-width: 0.02; stroke: #000000" x="59.2791" y="243.401" width="29.3333" height="22"/>
    <polygon style="fill: #d9d9cd" points="62.9458,269.068 84.9458,269.068 79.4458,270.901 68.4458,270.901 "/>
    <polygon style="fill: none; fill-opacity:0; stroke-width: 0.02; stroke: #000000" points="62.9458,269.068 84.9458,269.068 79.4458,270.901 68.4458,270.901 "/>
    <polygon style="fill: none; fill-opacity:0; stroke-width: 0.02; stroke: #000000" points="62.9458,269.068 84.9458,269.068 79.4458,270.901 68.4458,270.901 "/>
    <rect style="fill: #d9d9cd" x="68.4458" y="270.901" width="11" height="1.83333"/>
    <rect style="fill: none; fill-opacity:0; stroke-width: 0.02; stroke: #000000" x="68.4458" y="270.901" width="11" height="1.83333"/>
    <rect style="fill: none; fill-opacity:0; stroke-width: 0.02; stroke: #000000" x="68.4458" y="270.901" width="11" height="1.83333"/>
    <rect style="fill: #d9d9cd" x="62.9458" y="272.734" width="22" height="1.83333"/>
    <rect style="fill: none; fill-opacity:0; stroke-width: 0.02; stroke: #000000" x="62.9458" y="272.734" width="22" height="1.83333"/>
    <rect style="fill: none; fill-opacity:0; stroke-width: 0.02; stroke: #000000" x="62.9458" y="272.734" width="22" height="1.83333"/>
  </g>
  <g>
    <polygon style="fill: none; fill-opacity:0; stroke-width: 0.02; stroke: #000000" points="84.5279,150.32 99.2534,150.32 109.07,146.23 133.613,146.23 141.221,150.32 158.156,150.32 158.156,166.682 84.5279,166.682 "/>
    <rect style="fill: #b3b3b3" x="88.2093" y="152.366" width="66.2649" height="12.2713"/>
    <rect style="fill: none; fill-opacity:0; stroke-width: 0.02; stroke: #000000" x="88.2093" y="152.366" width="66.2649" height="12.2713"/>
    <ellipse style="fill: #ffffff" cx="96.3083" cy="158.501" rx="4.09042" ry="4.09042"/>
    <ellipse style="fill: none; fill-opacity:0; stroke-width: 0.02; stroke: #000000" cx="96.3083" cy="158.501" rx="4.09042" ry="4.09042"/>
    <ellipse style="fill: #ffffff" cx="112.506" cy="158.501" rx="4.09042" ry="4.09042"/>
    <ellipse style="fill: none; fill-opacity:0; stroke-width: 0.02; stroke: #000000" cx="112.506" cy="158.501" rx="4.09042" ry="4.09042"/>
    <ellipse style="fill: #ffffff" cx="129.441" cy="158.501" rx="4.09042" ry="4.09042"/>
    <ellipse style="fill: none; fill-opacity:0; stroke-width: 0.02; stroke: #000000" cx="129.441" cy="158.501" rx="4.09042" ry="4.09042"/>
    <ellipse style="fill: #ffffff" cx="145.639" cy="158.501" rx="4.09042" ry="4.09042"/>
    <ellipse style="fill: none; fill-opacity:0; stroke-width: 0.02; stroke: #000000" cx="145.639" cy="158.501" rx="4.09042" ry="4.09042"/>
    <text font-size="12.7998" style="fill: #000000;text-anchor:middle;font-family:sans-serif;font-style:normal;font-weight:normal" x="121.342" y="185.227">
      <tspan x="121.342" y="185.227"></tspan>
    </text>
  </g>
  <line style="fill: none; fill-opacity:0; stroke-width: 0.02; stroke: #000000" x1="113.417" y1="166.673" x2="88.7986" y2="198.41"/>
  <line style="fill: none; fill-opacity:0; stroke-width: 0.02; stroke: #000000" x1="130.809" y1="166.685" x2="159.811" y2="198.02"/>
  <line style="fill: none; fill-opacity:0; stroke-width: 0.02; stroke: #000000" x1="121.817" y1="166.674" x2="125.294" y2="241.365"/>
  <text font-size="7.15716" style="fill: #000000;text-anchor:start;font-family:sans-serif;font-style:normal;font-weight:700" x="151.988" y="285.367">
    <tspan x="151.988" y="285.367">192.168.0.2</tspan>
  </text>
  <line style="fill: none; fill-opacity:0; stroke-width: 0.02; stroke: #000000" x1="329.039" y1="168.524" x2="295.047" y2="243.506"/>
  <line style="fill: none; fill-opacity:0; stroke-width: 0.02; stroke: #000000" x1="338.941" y1="168.528" x2="377.83" y2="244.055"/>
  <g>
    <rect style="fill: #d9d9cd" x="369.358" y="244.011" width="33" height="27.5"/>
    <rect style="fill: none; fill-opacity:0; stroke-width: 0.02; stroke: #000000" x="369.358" y="244.011" width="33" height="27.5"/>
    <rect style="fill: none; fill-opacity:0; stroke-width: 0.02; stroke: #000000" x="369.358" y="244.011" width="33" height="27.5"/>
    <rect style="fill: #a1a1a1" x="371.192" y="245.844" width="29.3333" height="22"/>
    <rect style="fill: none; fill-opacity:0; stroke-width: 0.02; stroke: #000000" x="371.192" y="245.844" width="29.3333" height="22"/>
    <rect style="fill: none; fill-opacity:0; stroke-width: 0.02; stroke: #000000" x="371.192" y="245.844" width="29.3333" height="22"/>
    <polygon style="fill: #d9d9cd" points="374.858,271.511 396.858,271.511 391.358,273.344 380.358,273.344 "/>
    <polygon style="fill: none; fill-opacity:0; stroke-width: 0.02; stroke: #000000" points="374.858,271.511 396.858,271.511 391.358,273.344 380.358,273.344 "/>
    <polygon style="fill: none; fill-opacity:0; stroke-width: 0.02; stroke: #000000" points="374.858,271.511 396.858,271.511 391.358,273.344 380.358,273.344 "/>
    <rect style="fill: #d9d9cd" x="380.358" y="273.344" width="11" height="1.83333"/>
    <rect style="fill: none; fill-opacity:0; stroke-width: 0.02; stroke: #000000" x="380.358" y="273.344" width="11" height="1.83333"/>
    <rect style="fill: none; fill-opacity:0; stroke-width: 0.02; stroke: #000000" x="380.358" y="273.344" width="11" height="1.83333"/>
    <rect style="fill: #d9d9cd" x="374.858" y="275.178" width="22" height="1.83333"/>
    <rect style="fill: none; fill-opacity:0; stroke-width: 0.02; stroke: #000000" x="374.858" y="275.178" width="22" height="1.83333"/>
    <rect style="fill: none; fill-opacity:0; stroke-width: 0.02; stroke: #000000" x="374.858" y="275.178" width="22" height="1.83333"/>
  </g>
  <g>
    <rect style="fill: #d9d9cd" x="370.837" y="199.852" width="33" height="27.5"/>
    <rect style="fill: none; fill-opacity:0; stroke-width: 0.02; stroke: #000000" x="370.837" y="199.852" width="33" height="27.5"/>
    <rect style="fill: none; fill-opacity:0; stroke-width: 0.02; stroke: #000000" x="370.837" y="199.852" width="33" height="27.5"/>
    <rect style="fill: #a1a1a1" x="372.67" y="201.686" width="29.3333" height="22"/>
    <rect style="fill: none; fill-opacity:0; stroke-width: 0.02; stroke: #000000" x="372.67" y="201.686" width="29.3333" height="22"/>
    <rect style="fill: none; fill-opacity:0; stroke-width: 0.02; stroke: #000000" x="372.67" y="201.686" width="29.3333" height="22"/>
    <polygon style="fill: #d9d9cd" points="376.337,227.352 398.337,227.352 392.837,229.186 381.837,229.186 "/>
    <polygon style="fill: none; fill-opacity:0; stroke-width: 0.02; stroke: #000000" points="376.337,227.352 398.337,227.352 392.837,229.186 381.837,229.186 "/>
    <polygon style="fill: none; fill-opacity:0; stroke-width: 0.02; stroke: #000000" points="376.337,227.352 398.337,227.352 392.837,229.186 381.837,229.186 "/>
    <rect style="fill: #d9d9cd" x="381.837" y="229.186" width="11" height="1.83333"/>
    <rect style="fill: none; fill-opacity:0; stroke-width: 0.02; stroke: #000000" x="381.837" y="229.186" width="11" height="1.83333"/>
    <rect style="fill: none; fill-opacity:0; stroke-width: 0.02; stroke: #000000" x="381.837" y="229.186" width="11" height="1.83333"/>
    <rect style="fill: #d9d9cd" x="376.337" y="231.019" width="22" height="1.83333"/>
    <rect style="fill: none; fill-opacity:0; stroke-width: 0.02; stroke: #000000" x="376.337" y="231.019" width="22" height="1.83333"/>
    <rect style="fill: none; fill-opacity:0; stroke-width: 0.02; stroke: #000000" x="376.337" y="231.019" width="22" height="1.83333"/>
  </g>
  <g>
    <rect style="fill: #d9d9cd" x="321.021" y="243.211" width="33" height="27.5"/>
    <rect style="fill: none; fill-opacity:0; stroke-width: 0.02; stroke: #000000" x="321.021" y="243.211" width="33" height="27.5"/>
    <rect style="fill: none; fill-opacity:0; stroke-width: 0.02; stroke: #000000" x="321.021" y="243.211" width="33" height="27.5"/>
    <rect style="fill: #a1a1a1" x="322.854" y="245.044" width="29.3333" height="22"/>
    <rect style="fill: none; fill-opacity:0; stroke-width: 0.02; stroke: #000000" x="322.854" y="245.044" width="29.3333" height="22"/>
    <rect style="fill: none; fill-opacity:0; stroke-width: 0.02; stroke: #000000" x="322.854" y="245.044" width="29.3333" height="22"/>
    <polygon style="fill: #d9d9cd" points="326.521,270.711 348.521,270.711 343.021,272.544 332.021,272.544 "/>
    <polygon style="fill: none; fill-opacity:0; stroke-width: 0.02; stroke: #000000" points="326.521,270.711 348.521,270.711 343.021,272.544 332.021,272.544 "/>
    <polygon style="fill: none; fill-opacity:0; stroke-width: 0.02; stroke: #000000" points="326.521,270.711 348.521,270.711 343.021,272.544 332.021,272.544 "/>
    <rect style="fill: #d9d9cd" x="332.021" y="272.544" width="11" height="1.83333"/>
    <rect style="fill: none; fill-opacity:0; stroke-width: 0.02; stroke: #000000" x="332.021" y="272.544" width="11" height="1.83333"/>
    <rect style="fill: none; fill-opacity:0; stroke-width: 0.02; stroke: #000000" x="332.021" y="272.544" width="11" height="1.83333"/>
    <rect style="fill: #d9d9cd" x="326.521" y="274.378" width="22" height="1.83333"/>
    <rect style="fill: none; fill-opacity:0; stroke-width: 0.02; stroke: #000000" x="326.521" y="274.378" width="22" height="1.83333"/>
    <rect style="fill: none; fill-opacity:0; stroke-width: 0.02; stroke: #000000" x="326.521" y="274.378" width="22" height="1.83333"/>
  </g>
  <g>
    <rect style="fill: #d9d9cd" x="270.214" y="200.242" width="33" height="27.5"/>
    <rect style="fill: none; fill-opacity:0; stroke-width: 0.02; stroke: #000000" x="270.214" y="200.242" width="33" height="27.5"/>
    <rect style="fill: none; fill-opacity:0; stroke-width: 0.02; stroke: #000000" x="270.214" y="200.242" width="33" height="27.5"/>
    <rect style="fill: #a1a1a1" x="272.047" y="202.075" width="29.3333" height="22"/>
    <rect style="fill: none; fill-opacity:0; stroke-width: 0.02; stroke: #000000" x="272.047" y="202.075" width="29.3333" height="22"/>
    <rect style="fill: none; fill-opacity:0; stroke-width: 0.02; stroke: #000000" x="272.047" y="202.075" width="29.3333" height="22"/>
    <polygon style="fill: #d9d9cd" points="275.714,227.742 297.714,227.742 292.214,229.575 281.214,229.575 "/>
    <polygon style="fill: none; fill-opacity:0; stroke-width: 0.02; stroke: #000000" points="275.714,227.742 297.714,227.742 292.214,229.575 281.214,229.575 "/>
    <polygon style="fill: none; fill-opacity:0; stroke-width: 0.02; stroke: #000000" points="275.714,227.742 297.714,227.742 292.214,229.575 281.214,229.575 "/>
    <rect style="fill: #d9d9cd" x="281.214" y="229.575" width="11" height="1.83333"/>
    <rect style="fill: none; fill-opacity:0; stroke-width: 0.02; stroke: #000000" x="281.214" y="229.575" width="11" height="1.83333"/>
    <rect style="fill: none; fill-opacity:0; stroke-width: 0.02; stroke: #000000" x="281.214" y="229.575" width="11" height="1.83333"/>
    <rect style="fill: #d9d9cd" x="275.714" y="231.408" width="22" height="1.83333"/>
    <rect style="fill: none; fill-opacity:0; stroke-width: 0.02; stroke: #000000" x="275.714" y="231.408" width="22" height="1.83333"/>
    <rect style="fill: none; fill-opacity:0; stroke-width: 0.02; stroke: #000000" x="275.714" y="231.408" width="22" height="1.83333"/>
  </g>
  <g>
    <rect style="fill: #d9d9cd" x="269.778" y="243.411" width="33" height="27.5"/>
    <rect style="fill: none; fill-opacity:0; stroke-width: 0.02; stroke: #000000" x="269.778" y="243.411" width="33" height="27.5"/>
    <rect style="fill: none; fill-opacity:0; stroke-width: 0.02; stroke: #000000" x="269.778" y="243.411" width="33" height="27.5"/>
    <rect style="fill: #a1a1a1" x="271.612" y="245.244" width="29.3333" height="22"/>
    <rect style="fill: none; fill-opacity:0; stroke-width: 0.02; stroke: #000000" x="271.612" y="245.244" width="29.3333" height="22"/>
    <rect style="fill: none; fill-opacity:0; stroke-width: 0.02; stroke: #000000" x="271.612" y="245.244" width="29.3333" height="22"/>
    <polygon style="fill: #d9d9cd" points="275.278,270.911 297.278,270.911 291.778,272.744 280.778,272.744 "/>
    <polygon style="fill: none; fill-opacity:0; stroke-width: 0.02; stroke: #000000" points="275.278,270.911 297.278,270.911 291.778,272.744 280.778,272.744 "/>
    <polygon style="fill: none; fill-opacity:0; stroke-width: 0.02; stroke: #000000" points="275.278,270.911 297.278,270.911 291.778,272.744 280.778,272.744 "/>
    <rect style="fill: #d9d9cd" x="280.778" y="272.744" width="11" height="1.83333"/>
    <rect style="fill: none; fill-opacity:0; stroke-width: 0.02; stroke: #000000" x="280.778" y="272.744" width="11" height="1.83333"/>
    <rect style="fill: none; fill-opacity:0; stroke-width: 0.02; stroke: #000000" x="280.778" y="272.744" width="11" height="1.83333"/>
    <rect style="fill: #d9d9cd" x="275.278" y="274.578" width="22" height="1.83333"/>
    <rect style="fill: none; fill-opacity:0; stroke-width: 0.02; stroke: #000000" x="275.278" y="274.578" width="22" height="1.83333"/>
    <rect style="fill: none; fill-opacity:0; stroke-width: 0.02; stroke: #000000" x="275.278" y="274.578" width="22" height="1.83333"/>
  </g>
  <g>
    <polygon style="fill: none; fill-opacity:0; stroke-width: 0.02; stroke: #000000" points="296.86,152.164 311.586,152.164 321.403,148.073 345.945,148.073 353.554,152.164 370.488,152.164 370.488,168.525 296.86,168.525 "/>
    <rect style="fill: #b3b3b3" x="300.542" y="154.209" width="66.2649" height="12.2713"/>
    <rect style="fill: none; fill-opacity:0; stroke-width: 0.02; stroke: #000000" x="300.542" y="154.209" width="66.2649" height="12.2713"/>
    <ellipse style="fill: #ffffff" cx="308.641" cy="160.344" rx="4.09042" ry="4.09042"/>
    <ellipse style="fill: none; fill-opacity:0; stroke-width: 0.02; stroke: #000000" cx="308.641" cy="160.344" rx="4.09042" ry="4.09042"/>
    <ellipse style="fill: #ffffff" cx="324.839" cy="160.344" rx="4.09042" ry="4.09042"/>
    <ellipse style="fill: none; fill-opacity:0; stroke-width: 0.02; stroke: #000000" cx="324.839" cy="160.344" rx="4.09042" ry="4.09042"/>
    <ellipse style="fill: #ffffff" cx="341.773" cy="160.344" rx="4.09042" ry="4.09042"/>
    <ellipse style="fill: none; fill-opacity:0; stroke-width: 0.02; stroke: #000000" cx="341.773" cy="160.344" rx="4.09042" ry="4.09042"/>
    <ellipse style="fill: #ffffff" cx="357.971" cy="160.344" rx="4.09042" ry="4.09042"/>
    <ellipse style="fill: none; fill-opacity:0; stroke-width: 0.02; stroke: #000000" cx="357.971" cy="160.344" rx="4.09042" ry="4.09042"/>
    <text font-size="12.7998" style="fill: #000000;text-anchor:middle;font-family:sans-serif;font-style:normal;font-weight:normal" x="333.674" y="187.07">
      <tspan x="333.674" y="187.07"></tspan>
    </text>
  </g>
  <line style="fill: none; fill-opacity:0; stroke-width: 0.02; stroke: #000000" x1="325.749" y1="168.516" x2="301.131" y2="200.253"/>
  <line style="fill: none; fill-opacity:0; stroke-width: 0.02; stroke: #000000" x1="343.142" y1="168.528" x2="372.143" y2="199.863"/>
  <line style="fill: none; fill-opacity:0; stroke-width: 0.02; stroke: #000000" x1="334.15" y1="168.517" x2="337.627" y2="243.208"/>
  <text font-size="7.15716" style="fill: #000000;text-anchor:start;font-family:sans-serif;font-style:normal;font-weight:700" x="262.643" y="286.021">
    <tspan x="262.643" y="286.021">192.168.0.2</tspan>
  </text>
  <text font-size="7.15716" style="fill: #000000;text-anchor:start;font-family:sans-serif;font-style:normal;font-weight:700" x="107.452" y="144.02">
    <tspan x="107.452" y="144.02">1.1.1.1</tspan>
  </text>
  <text font-size="7.15716" style="fill: #000000;text-anchor:start;font-family:sans-serif;font-style:normal;font-weight:700" x="319.725" y="145.209">
    <tspan x="319.725" y="145.209">2.2.2.2</tspan>
  </text>
  <g>
    <path style="fill: #ffe9aa" d="M 261.269 50.1482 L 261.246,49.5949 L 261.164,49.0416 L 261.012,48.498 L 260.801,47.9544 L 260.52,47.4011 L 260.203,46.8672 L 259.805,46.3528 L 259.36,45.8286 L 258.879,45.3238 L 258.317,44.8288 L 257.719,44.3532 L 257.063,43.8872 L 256.348,43.4407 L 255.598,43.0136 L 254.802,42.5962 L 253.946,42.1982 L 253.068,41.8196 L 252.154,41.4702 L 251.193,41.1499 L 250.197,40.8392 L 249.166,40.548 L 248.1,40.2957 L 247.033,40.0627 L 245.92,39.8588 L 244.784,39.6841 L 243.647,39.5191 L 242.487,39.3929 L 241.315,39.2958 L 240.132,39.2279 L 238.937,39.1891 L 237.742,39.1697 L 237.742,39.1697 L 236.558,39.1891 L 235.352,39.2279 L 234.18,39.2958 L 233.008,39.3929 L 231.836,39.5191 L 230.7,39.6841 L 229.563,39.8588 L 228.462,40.0627 L 227.372,40.2957 L 226.33,40.548 L 225.298,40.8392 L 224.314,41.1499 L 223.342,41.4702 L 222.428,41.8196 L 221.537,42.1982 L 220.682,42.5962 L 219.885,43.0136 L 219.135,43.4407 L 218.421,43.8872 L 217.764,44.3532 L 217.167,44.8288 L 216.616,45.3238 L 216.112,45.8286 L 215.691,46.3528 L 215.292,46.8672 L 214.964,47.4011 L 214.683,47.9544 L 214.495,48.498 L 214.343,49.0416 L 214.238,49.5949 L 214.226,50.1482 L 214.226,50.1482 L 214.238,50.7015 L 214.343,51.2742 L 214.495,51.8178 L 214.683,52.3711 L 214.964,52.9146 L 215.292,53.4485 L 215.691,53.963 L 216.112,54.4872 L 216.616,54.9919 L 217.167,55.4773 L 217.764,55.9626 L 218.421,56.4286 L 219.135,56.8654 L 219.885,57.3022 L 220.682,57.7196 L 221.537,58.1176 L 222.428,58.4864 L 223.342,58.8262 L 224.314,59.1756 L 225.298,59.4765 L 226.33,59.758 L 227.372,60.0201 L 228.462,60.2531 L 229.563,60.4472 L 230.7,60.6316 L 231.836,60.787 L 233.008,60.9131 L 234.18,61.0005 L 235.352,61.0879 L 236.558,61.117 L 237.742,61.1267 L 237.742,61.1267 L 238.937,61.117 L 240.132,61.0879 L 241.315,61.0005 L 242.487,60.9131 L 243.647,60.787 L 244.784,60.6316 L 245.92,60.4472 L 247.033,60.2531 L 248.1,60.0201 L 249.166,59.758 L 250.197,59.4765 L 251.193,59.1756 L 252.154,58.8262 L 253.068,58.4864 L 253.946,58.1176 L 254.802,57.7196 L 255.598,57.3022 L 256.348,56.8654 L 257.063,56.4286 L 257.719,55.9626 L 258.317,55.4773 L 258.879,54.9919 L 259.36,54.4872 L 259.805,53.963 L 260.203,53.4485 L 260.52,52.9146 L 260.801,52.3711 L 261.012,51.8178 L 261.164,51.2742 L 261.246,50.7015 L 261.269,50.1482z"/>
    <path style="fill: #ffe9aa" d="M 224.396 55.9141 L 224.373,55.3608 L 224.291,54.8075 L 224.197,54.2639 L 224.033,53.7106 L 223.822,53.167 L 223.564,52.6331 L 223.26,52.109 L 222.932,51.5945 L 222.557,51.0897 L 222.135,50.5947 L 221.678,50.1191 L 221.174,49.6531 L 220.612,49.2066 L 220.038,48.7601 L 219.428,48.3621 L 218.772,47.9641 L 218.116,47.5856 L 217.39,47.2361 L 216.663,46.9061 L 215.89,46.6052 L 215.116,46.3139 L 214.308,46.0616 L 213.464,45.8286 L 212.621,45.6248 L 211.754,45.45 L 210.875,45.285 L 209.984,45.1588 L 209.082,45.0715 L 208.192,44.9938 L 207.278,44.955 L 206.364,44.9356 L 206.364,44.9356 L 205.45,44.955 L 204.536,44.9938 L 203.622,45.0715 L 202.732,45.1588 L 201.829,45.285 L 200.951,45.45 L 200.095,45.6248 L 199.252,45.8286 L 198.42,46.0616 L 197.611,46.3139 L 196.815,46.6052 L 196.065,46.9061 L 195.315,47.2361 L 194.612,47.5856 L 193.944,47.9641 L 193.288,48.3621 L 192.678,48.7601 L 192.093,49.2066 L 191.542,49.6531 L 191.05,50.1191 L 190.581,50.5947 L 190.171,51.0897 L 189.784,51.5945 L 189.445,52.109 L 189.152,52.6331 L 188.894,53.167 L 188.683,53.7106 L 188.531,54.2639 L 188.414,54.8075 L 188.343,55.3608 L 188.32,55.9141 L 188.32,55.9141 L 188.343,56.4771 L 188.414,57.0401 L 188.531,57.5837 L 188.683,58.1273 L 188.894,58.6806 L 189.152,59.195 L 189.445,59.7289 L 189.784,60.2531 L 190.171,60.7578 L 190.581,61.2432 L 191.05,61.7285 L 191.542,62.1945 L 192.093,62.6313 L 192.678,63.0681 L 193.288,63.4855 L 193.944,63.864 L 194.612,64.2523 L 195.315,64.5921 L 196.065,64.9415 L 196.815,65.2424 L 197.611,65.5239 L 198.42,65.786 L 199.252,66.0093 L 200.095,66.2131 L 200.951,66.3976 L 201.829,66.5529 L 202.732,66.6791 L 203.622,66.7664 L 204.536,66.8344 L 205.45,66.8829 L 206.364,66.8926 L 206.364,66.8926 L 207.278,66.8829 L 208.192,66.8344 L 209.082,66.7664 L 209.984,66.6791 L 210.875,66.5529 L 211.754,66.3976 L 212.621,66.2131 L 213.464,66.0093 L 214.308,65.786 L 215.116,65.5239 L 215.89,65.2424 L 216.663,64.9415 L 217.39,64.5921 L 218.116,64.2523 L 218.772,63.864 L 219.428,63.4855 L 220.038,63.0681 L 220.612,62.6313 L 221.174,62.1945 L 221.678,61.7285 L 222.135,61.2432 L 222.557,60.7578 L 222.932,60.2531 L 223.26,59.7289 L 223.564,59.195 L 223.822,58.6806 L 224.033,58.1273 L 224.197,57.5837 L 224.291,57.0401 L 224.373,56.4771 L 224.396,55.9141z"/>
    <path style="fill: #ffe9aa" d="M 201.654 67.1159 L 201.642,66.6693 L 201.607,66.2131 L 201.525,65.7666 L 201.419,65.3104 L 201.267,64.8736 L 201.091,64.4368 L 200.904,64.0097 L 200.681,63.5923 L 200.423,63.1749 L 200.13,62.7575 L 199.814,62.3886 L 199.474,62.0003 L 199.111,61.6218 L 198.724,61.282 L 198.303,60.9423 L 197.869,60.6316 L 197.424,60.321 L 196.955,60.0298 L 196.451,59.7677 L 195.936,59.5154 L 195.409,59.2824 L 194.858,59.0688 L 194.307,58.8747 L 193.733,58.7097 L 193.147,58.5641 L 192.561,58.4476 L 191.964,58.3311 L 191.343,58.2632 L 190.733,58.2049 L 190.136,58.1758 L 189.515,58.1564 L 189.515,58.1564 L 188.894,58.1758 L 188.273,58.2049 L 187.664,58.2632 L 187.066,58.3311 L 186.457,58.4476 L 185.859,58.5641 L 185.285,58.7097 L 184.723,58.8747 L 184.149,59.0688 L 183.598,59.2824 L 183.071,59.5154 L 182.555,59.7677 L 182.063,60.0298 L 181.583,60.321 L 181.137,60.6316 L 180.704,60.9423 L 180.294,61.282 L 179.895,61.6218 L 179.532,62.0003 L 179.192,62.3886 L 178.876,62.7575 L 178.606,63.1749 L 178.349,63.5923 L 178.126,64.0097 L 177.915,64.4368 L 177.739,64.8736 L 177.61,65.3104 L 177.505,65.7666 L 177.411,66.2131 L 177.364,66.6693 L 177.364,67.1159 L 177.364,67.1159 L 177.364,67.5624 L 177.411,68.0283 L 177.505,68.4651 L 177.61,68.9214 L 177.739,69.3679 L 177.915,69.795 L 178.126,70.2221 L 178.349,70.6395 L 178.606,71.0666 L 178.876,71.4743 L 179.192,71.8528 L 179.532,72.2314 L 179.895,72.6003 L 180.294,72.9497 L 180.704,73.2895 L 181.137,73.6098 L 181.583,73.9204 L 182.063,74.2019 L 182.555,74.464 L 183.071,74.7164 L 183.598,74.9493 L 184.149,75.1629 L 184.723,75.357 L 185.285,75.5123 L 185.859,75.6677 L 186.457,75.7938 L 187.066,75.9006 L 187.664,75.9783 L 188.273,76.0268 L 188.894,76.0559 L 189.515,76.0753 L 189.515,76.0753 L 190.136,76.0559 L 190.733,76.0268 L 191.343,75.9783 L 191.964,75.9006 L 192.561,75.7938 L 193.147,75.6677 L 193.733,75.5123 L 194.307,75.357 L 194.858,75.1629 L 195.409,74.9493 L 195.936,74.7164 L 196.451,74.464 L 196.955,74.2019 L 197.424,73.9204 L 197.869,73.6098 L 198.303,73.2895 L 198.724,72.9497 L 199.111,72.6003 L 199.474,72.2314 L 199.814,71.8528 L 200.13,71.4743 L 200.423,71.0666 L 200.681,70.6395 L 200.904,70.2221 L 201.091,69.795 L 201.267,69.3679 L 201.419,68.9214 L 201.525,68.4651 L 201.607,68.0283 L 201.642,67.5624 L 201.654,67.1159z"/>
    <path style="fill: #ffe9aa" d="M 221.268 75.7453 L 221.256,75.26 L 221.174,74.7649 L 221.045,74.2796 L 220.893,73.7942 L 220.682,73.3186 L 220.436,72.8429 L 220.12,72.3867 L 219.791,71.9208 L 219.393,71.484 L 218.971,71.0569 L 218.491,70.6298 L 217.987,70.2221 L 217.448,69.8047 L 216.862,69.4261 L 216.241,69.067 L 215.585,68.7175 L 214.894,68.3972 L 214.167,68.0866 L 213.429,67.7953 L 212.656,67.5236 L 211.847,67.2809 L 211.027,67.0479 L 210.184,66.8344 L 209.328,66.6499 L 208.449,66.5043 L 207.547,66.3684 L 206.657,66.252 L 205.743,66.1549 L 204.829,66.0966 L 203.903,66.0675 L 202.966,66.0481 L 202.966,66.0481 L 202.04,66.0675 L 201.126,66.0966 L 200.189,66.1549 L 199.287,66.252 L 198.373,66.3684 L 197.494,66.5043 L 196.615,66.6499 L 195.748,66.8344 L 194.905,67.0479 L 194.096,67.2809 L 193.288,67.5236 L 192.514,67.7953 L 191.765,68.0866 L 191.05,68.3972 L 190.359,68.7175 L 189.702,69.067 L 189.081,69.4261 L 188.496,69.8047 L 187.945,70.2221 L 187.441,70.6298 L 186.961,71.0569 L 186.527,71.484 L 186.152,71.9208 L 185.812,72.3867 L 185.496,72.8429 L 185.238,73.3186 L 185.051,73.7942 L 184.875,74.2796 L 184.758,74.7649 L 184.688,75.26 L 184.664,75.7453 L 184.664,75.7453 L 184.688,76.2404 L 184.758,76.7257 L 184.875,77.2305 L 185.051,77.7158 L 185.238,78.1817 L 185.496,78.6477 L 185.812,79.1233 L 186.152,79.5795 L 186.527,80.0261 L 186.961,80.4629 L 187.441,80.89 L 187.945,81.2977 L 188.496,81.7054 L 189.081,82.0936 L 189.702,82.4431 L 190.359,82.7828 L 191.05,83.1226 L 191.765,83.4332 L 192.514,83.7244 L 193.288,83.9962 L 194.096,84.2389 L 194.905,84.4718 L 195.748,84.666 L 196.615,84.8504 L 197.494,85.0154 L 198.373,85.1416 L 199.287,85.2581 L 200.189,85.3552 L 201.126,85.4037 L 202.04,85.4522 L 202.966,85.4522 L 202.966,85.4522 L 203.903,85.4522 L 204.829,85.4037 L 205.743,85.3552 L 206.657,85.2581 L 207.547,85.1416 L 208.449,85.0154 L 209.328,84.8504 L 210.184,84.666 L 211.027,84.4718 L 211.847,84.2389 L 212.656,83.9962 L 213.429,83.7244 L 214.167,83.4332 L 214.894,83.1226 L 215.585,82.7828 L 216.241,82.4431 L 216.862,82.0839 L 217.448,81.6859 L 217.987,81.2977 L 218.491,80.89 L 218.971,80.4629 L 219.393,80.0261 L 219.791,79.5795 L 220.12,79.1233 L 220.436,78.6477 L 220.682,78.1817 L 220.893,77.7158 L 221.045,77.2305 L 221.174,76.7257 L 221.256,76.2404 L 221.268,75.7453z"/>
    <path style="fill: #ffe9aa" d="M 265.195 80.7638 L 265.148,80.1814 L 265.054,79.599 L 264.867,79.0165 L 264.62,78.4535 L 264.316,77.8711 L 263.941,77.3178 L 263.496,76.7645 L 262.98,76.221 L 262.394,75.6871 L 261.762,75.1823 L 261.047,74.6776 L 260.297,74.1728 L 259.477,73.7166 L 258.61,73.2603 L 257.661,72.8235 L 256.7,72.4061 L 255.669,72.0276 L 254.591,71.6587 L 253.489,71.3093 L 252.318,70.9889 L 251.134,70.6977 L 249.904,70.4162 L 248.65,70.1735 L 247.35,69.9697 L 246.049,69.7756 L 244.713,69.6105 L 243.378,69.4844 L 241.995,69.3776 L 240.648,69.3096 L 239.253,69.2514 L 237.871,69.2514 L 237.871,69.2514 L 236.488,69.2514 L 235.106,69.3096 L 233.735,69.3776 L 232.375,69.4844 L 231.016,69.6105 L 229.692,69.7756 L 228.38,69.9697 L 227.103,70.1735 L 225.826,70.4162 L 224.619,70.6977 L 223.412,70.9889 L 222.264,71.3093 L 221.151,71.6587 L 220.084,72.0276 L 219.053,72.4061 L 218.069,72.8235 L 217.143,73.2603 L 216.276,73.7166 L 215.444,74.1728 L 214.683,74.6776 L 213.98,75.1823 L 213.359,75.6871 L 212.773,76.221 L 212.257,76.7645 L 211.812,77.3178 L 211.426,77.8711 L 211.121,78.4535 L 210.863,79.0165 L 210.687,79.599 L 210.582,80.1814 L 210.547,80.7638 L 210.547,80.7638 L 210.582,81.3365 L 210.687,81.9286 L 210.863,82.511 L 211.121,83.0837 L 211.426,83.6564 L 211.812,84.2194 L 212.257,84.763 L 212.773,85.3066 L 213.359,85.8405 L 213.98,86.355 L 214.683,86.85 L 215.444,87.3354 L 216.276,87.811 L 217.143,88.2672 L 218.069,88.704 L 219.053,89.102 L 220.084,89.5097 L 221.151,89.8786 L 222.264,90.2183 L 223.412,90.5387 L 224.619,90.8396 L 225.826,91.0919 L 227.103,91.3443 L 228.38,91.5676 L 229.692,91.7617 L 231.016,91.917 L 232.375,92.0529 L 233.735,92.15 L 235.106,92.2277 L 236.488,92.2762 L 237.871,92.2859 L 237.871,92.2859 L 239.253,92.2762 L 240.648,92.2277 L 241.995,92.15 L 243.378,92.0529 L 244.713,91.917 L 246.049,91.7617 L 247.35,91.5676 L 248.65,91.3443 L 249.904,91.0919 L 251.134,90.8396 L 252.318,90.5387 L 253.489,90.2183 L 254.591,89.8786 L 255.669,89.5097 L 256.7,89.102 L 257.661,88.704 L 258.61,88.2672 L 259.477,87.811 L 260.297,87.3354 L 261.047,86.85 L 261.762,86.355 L 262.394,85.8405 L 262.98,85.3066 L 263.496,84.763 L 263.941,84.2194 L 264.316,83.6564 L 264.62,83.0837 L 264.867,82.511 L 265.054,81.9286 L 265.148,81.3365 L 265.195,80.7638z"/>
    <path style="fill: #ffe9aa" d="M 280.356 54.2057 L 280.345,53.7786 L 280.274,53.3418 L 280.145,52.9049 L 280.005,52.4778 L 279.794,52.0507 L 279.56,51.6333 L 279.267,51.2159 L 278.927,50.7985 L 278.564,50.4103 L 278.165,50.0123 L 277.708,49.6434 L 277.216,49.2746 L 276.701,48.9251 L 276.127,48.5757 L 275.541,48.2553 L 274.896,47.9544 L 274.24,47.6438 L 273.561,47.3817 L 272.834,47.1099 L 272.096,46.8672 L 271.346,46.6537 L 270.549,46.4498 L 269.741,46.2654 L 268.921,46.1101 L 268.077,45.9548 L 267.233,45.8383 L 266.366,45.7509 L 265.499,45.6636 L 264.609,45.6053 L 263.73,45.5859 L 262.84,45.5762 L 262.84,45.5762 L 261.937,45.5859 L 261.059,45.6053 L 260.168,45.6636 L 259.301,45.7509 L 258.446,45.8383 L 257.59,45.9548 L 256.758,46.1101 L 255.927,46.2654 L 255.118,46.4498 L 254.321,46.6537 L 253.56,46.8672 L 252.833,47.1099 L 252.107,47.3817 L 251.427,47.6438 L 250.771,47.9544 L 250.138,48.2553 L 249.541,48.5757 L 248.967,48.9251 L 248.451,49.2746 L 247.971,49.6434 L 247.502,50.0123 L 247.104,50.4103 L 246.74,50.7985 L 246.401,51.2159 L 246.108,51.6333 L 245.873,52.0507 L 245.674,52.4778 L 245.51,52.9049 L 245.405,53.3418 L 245.346,53.7786 L 245.311,54.2057 L 245.311,54.2057 L 245.346,54.6425 L 245.405,55.0696 L 245.51,55.5161 L 245.674,55.9432 L 245.873,56.38 L 246.108,56.7974 L 246.401,57.2148 L 246.74,57.6031 L 247.104,58.0205 L 247.502,58.3991 L 247.971,58.7679 L 248.451,59.1465 L 248.967,59.4862 L 249.541,59.8357 L 250.138,60.156 L 250.771,60.4666 L 251.427,60.7578 L 252.107,61.0393 L 252.833,61.3014 L 253.56,61.5441 L 254.321,61.7674 L 255.118,61.9712 L 255.927,62.1459 L 256.758,62.3109 L 257.59,62.4565 L 258.446,62.573 L 259.301,62.6701 L 260.168,62.7575 L 261.059,62.806 L 261.937,62.8254 L 262.84,62.8545 L 262.84,62.8545 L 263.73,62.8254 L 264.609,62.806 L 265.499,62.7575 L 266.366,62.6701 L 267.233,62.573 L 268.077,62.4565 L 268.921,62.3109 L 269.741,62.1459 L 270.549,61.9712 L 271.346,61.7674 L 272.096,61.5441 L 272.834,61.3014 L 273.561,61.0393 L 274.24,60.7578 L 274.896,60.4666 L 275.541,60.156 L 276.127,59.8357 L 276.701,59.4862 L 277.216,59.1465 L 277.708,58.7679 L 278.165,58.3991 L 278.564,58.0205 L 278.927,57.6031 L 279.267,57.2148 L 279.56,56.7974 L 279.794,56.38 L 280.005,55.9432 L 280.145,55.5161 L 280.274,55.0696 L 280.345,54.6425 L 280.356,54.2057z"/>
    <path style="fill: #ffe9aa" d="M 285.324 65.3007 L 285.289,64.8736 L 285.242,64.4368 L 285.125,63.9999 L 284.973,63.5631 L 284.762,63.1263 L 284.528,62.7089 L 284.246,62.3012 L 283.907,61.9033 L 283.543,61.4956 L 283.145,61.117 L 282.688,60.7384 L 282.196,60.3793 L 281.692,60.0298 L 281.118,59.6707 L 280.532,59.36 L 279.923,59.0494 L 279.267,58.7485 L 278.564,58.4864 L 277.872,58.2146 L 277.134,57.972 L 276.384,57.7584 L 275.599,57.5448 L 274.803,57.3701 L 273.982,57.2148 L 273.139,57.0595 L 272.295,56.943 L 271.44,56.846 L 270.561,56.7586 L 269.694,56.7198 L 268.815,56.6906 L 267.936,56.6712 L 267.936,56.6712 L 267.046,56.6906 L 266.179,56.7198 L 265.3,56.7586 L 264.445,56.846 L 263.589,56.943 L 262.734,57.0595 L 261.902,57.2148 L 261.094,57.3701 L 260.285,57.5448 L 259.5,57.7584 L 258.75,57.972 L 258.012,58.2146 L 257.297,58.4864 L 256.63,58.7485 L 255.973,59.0494 L 255.329,59.36 L 254.743,59.6707 L 254.192,60.0298 L 253.689,60.3793 L 253.196,60.7384 L 252.751,61.117 L 252.329,61.4956 L 251.966,61.9033 L 251.65,62.3012 L 251.357,62.7089 L 251.099,63.1263 L 250.912,63.5631 L 250.759,63.9999 L 250.642,64.4368 L 250.572,64.8736 L 250.56,65.3007 L 250.56,65.3007 L 250.572,65.7278 L 250.642,66.1646 L 250.759,66.6111 L 250.912,67.0382 L 251.099,67.475 L 251.357,67.8924 L 251.65,68.3098 L 251.966,68.6981 L 252.329,69.1058 L 252.751,69.4941 L 253.196,69.8629 L 253.689,70.2221 L 254.192,70.5812 L 254.743,70.9307 L 255.329,71.251 L 255.973,71.5519 L 256.63,71.8528 L 257.297,72.1149 L 258.012,72.3867 L 258.75,72.6294 L 259.5,72.8429 L 260.285,73.0565 L 261.094,73.2409 L 261.902,73.3865 L 262.734,73.5418 L 263.589,73.6583 L 264.445,73.7554 L 265.3,73.8428 L 266.179,73.8913 L 267.046,73.9204 L 267.936,73.9301 L 267.936,73.9301 L 268.815,73.9204 L 269.694,73.8913 L 270.561,73.8428 L 271.44,73.7554 L 272.295,73.6583 L 273.139,73.5418 L 273.982,73.3865 L 274.803,73.2409 L 275.599,73.0565 L 276.384,72.8429 L 277.134,72.6294 L 277.872,72.3867 L 278.564,72.1149 L 279.267,71.8528 L 279.923,71.5519 L 280.532,71.251 L 281.118,70.9307 L 281.692,70.5812 L 282.196,70.2221 L 282.688,69.8629 L 283.145,69.4941 L 283.543,69.1058 L 283.907,68.6981 L 284.246,68.3098 L 284.528,67.8924 L 284.762,67.475 L 284.973,67.0382 L 285.125,66.6111 L 285.242,66.1646 L 285.289,65.7278 L 285.324,65.3007z"/>
    <path style="fill: #ffe9aa" d="M 281.926 74.4737 L 281.903,73.7554 L 281.833,73.0468 L 281.739,72.3382 L 281.587,71.6199 L 281.387,70.921 L 281.141,70.2221 L 280.86,69.5523 L 280.52,68.8825 L 280.157,68.2322 L 279.77,67.6012 L 279.325,66.98 L 278.833,66.3781 L 278.318,65.7957 L 277.755,65.2424 L 277.169,64.6988 L 276.56,64.2038 L 275.904,63.7184 L 275.236,63.2719 L 274.521,62.8351 L 273.795,62.4468 L 273.045,62.0877 L 272.283,61.7576 L 271.487,61.4567 L 270.678,61.1752 L 269.835,60.9423 L 269.003,60.7578 L 268.136,60.5831 L 267.28,60.4569 L 266.425,60.3793 L 265.558,60.321 L 264.679,60.3016 L 264.679,60.3016 L 263.8,60.321 L 262.933,60.3793 L 262.054,60.4569 L 261.199,60.5831 L 260.356,60.7578 L 259.5,60.9423 L 258.68,61.1752 L 257.872,61.4567 L 257.075,61.7576 L 256.29,62.0877 L 255.54,62.4468 L 254.813,62.8351 L 254.122,63.2719 L 253.431,63.7184 L 252.786,64.2038 L 252.165,64.6988 L 251.58,65.2424 L 251.029,65.7957 L 250.502,66.3781 L 250.033,66.98 L 249.588,67.6012 L 249.178,68.2322 L 248.814,68.8825 L 248.498,69.5523 L 248.217,70.2221 L 247.971,70.921 L 247.772,71.6199 L 247.619,72.3382 L 247.502,73.0468 L 247.432,73.7554 L 247.408,74.4737 L 247.408,74.4737 L 247.432,75.192 L 247.502,75.92 L 247.619,76.6286 L 247.772,77.3275 L 247.971,78.0361 L 248.217,78.7156 L 248.498,79.3951 L 248.814,80.0649 L 249.178,80.7153 L 249.588,81.3656 L 250.033,81.9869 L 250.502,82.579 L 251.029,83.1517 L 251.58,83.705 L 252.165,84.2389 L 252.786,84.763 L 253.431,85.2484 L 254.122,85.6949 L 254.813,86.1123 L 255.54,86.5103 L 256.29,86.8791 L 257.075,87.2092 L 257.872,87.5101 L 258.68,87.7819 L 259.5,88.0051 L 260.356,88.209 L 261.199,88.3643 L 262.054,88.4905 L 262.933,88.5876 L 263.8,88.6458 L 264.679,88.6652 L 264.679,88.6652 L 265.558,88.6458 L 266.425,88.5876 L 267.28,88.4905 L 268.136,88.3643 L 269.003,88.209 L 269.835,88.0051 L 270.678,87.7819 L 271.487,87.5101 L 272.283,87.2092 L 273.045,86.8791 L 273.795,86.5103 L 274.521,86.1123 L 275.236,85.6949 L 275.904,85.2484 L 276.56,84.763 L 277.169,84.2389 L 277.755,83.705 L 278.318,83.1517 L 278.833,82.0839 L 279.325,81.9869 L 279.77,81.3656 L 280.157,80.7153 L 280.52,80.0649 L 280.86,79.3951 L 281.141,78.7156 L 281.387,78.0361 L 281.587,77.3275 L 281.739,76.6286 L 281.833,75.92 L 281.903,75.192 L 281.926,74.4737z"/>
    <path style="fill: #ffe9aa" d="M 267.022 65.9413 L 266.976,65.223 L 266.835,64.5047 L 266.612,63.7864 L 266.308,63.0778 L 265.909,62.3886 L 265.417,61.6994 L 264.843,61.0102 L 264.175,60.3404 L 263.449,59.6804 L 262.629,59.0591 L 261.715,58.4379 L 260.742,57.8361 L 259.688,57.2536 L 258.563,56.6906 L 257.368,56.1568 L 256.126,55.652 L 254.802,55.1667 L 253.419,54.7298 L 252.001,54.293 L 250.513,53.895 L 248.978,53.5359 L 247.408,53.2059 L 245.803,52.9049 L 244.163,52.6331 L 242.475,52.4002 L 240.765,52.1963 L 239.042,52.0507 L 237.297,51.9051 L 235.539,51.8275 L 233.77,51.7692 L 231.977,51.7595 L 231.977,51.7595 L 230.208,51.7692 L 228.439,51.8275 L 226.681,51.9051 L 224.923,52.0507 L 223.201,52.1963 L 221.49,52.4002 L 219.815,52.6331 L 218.175,52.9049 L 216.546,53.2059 L 214.999,53.5359 L 213.464,53.895 L 211.965,54.293 L 210.535,54.7298 L 209.176,55.1667 L 207.84,55.652 L 206.586,56.1568 L 205.415,56.6906 L 204.278,57.2536 L 203.224,57.8361 L 202.263,58.4379 L 201.349,59.0591 L 200.541,59.6804 L 199.802,60.3404 L 199.123,61.0102 L 198.56,61.6994 L 198.08,62.3886 L 197.658,63.0778 L 197.354,63.7864 L 197.131,64.5047 L 196.99,65.223 L 196.955,65.9413 L 196.955,65.9413 L 196.99,66.6499 L 197.131,67.3682 L 197.354,68.0866 L 197.658,68.7952 L 198.08,69.4941 L 198.56,70.1735 L 199.123,70.8627 L 199.802,71.5325 L 200.541,72.1926 L 201.349,72.8235 L 202.263,73.4351 L 203.224,74.0369 L 204.278,74.6193 L 205.415,75.1823 L 206.586,75.7162 L 207.84,76.221 L 209.176,76.7063 L 210.535,77.1431 L 211.965,77.5896 L 213.464,77.9779 L 214.999,78.3371 L 216.546,78.6671 L 218.175,78.968 L 219.815,79.2398 L 221.49,79.4728 L 223.201,79.6766 L 224.923,79.8222 L 226.681,79.9581 L 228.439,80.0455 L 230.208,80.1037 L 231.977,80.1134 L 231.977,80.1134 L 233.77,80.1037 L 235.539,80.0455 L 237.297,79.9581 L 239.042,79.8222 L 240.765,79.6766 L 242.475,79.4728 L 244.163,79.2398 L 245.803,78.968 L 247.408,78.6671 L 248.978,78.3371 L 250.513,77.9779 L 252.001,77.5896 L 253.419,77.1431 L 254.802,76.7063 L 256.126,76.221 L 257.368,75.7162 L 258.563,75.1823 L 259.688,74.6193 L 260.742,74.0369 L 261.715,73.4351 L 262.629,72.8235 L 263.449,72.1926 L 264.175,71.5325 L 264.843,70.8627 L 265.417,70.1735 L 265.909,69.4941 L 266.308,68.7952 L 266.612,68.0866 L 266.835,67.3682 L 266.976,66.6499 L 267.022,65.9413z"/>
    <path style="fill: #ffe9aa" d="M 238.011 50.0608 L 261.199,47.605 L 260.906,47.0614 L 260.543,46.5372 L 260.145,46.0033 L 259.664,45.4792 L 259.149,44.9744 L 258.563,44.489 L 257.954,44.0037 L 257.251,43.5572 L 256.536,43.101 L 255.762,42.6739 L 254.931,42.2662 L 254.064,41.8876 L 253.15,41.5187 L 252.201,41.1596 L 251.216,40.8392 L 250.197,40.548 L 249.166,40.2568 L 248.076,40.0142 L 246.975,39.8006 L 245.862,39.5871 L 244.702,39.4123 L 243.542,39.2764 L 242.37,39.1502 L 241.187,39.0726 L 239.991,39.0143 L 238.785,38.9755 L 237.59,38.9755 L 236.383,38.9852 L 235.176,39.0435 L 234.004,39.1308 L 232.821,39.2279 L 231.649,39.3832 L 230.489,39.5288 L 229.352,39.7327 L 228.251,39.9462 L 227.173,40.1889 L 226.107,40.4607 L 225.076,40.7422 L 224.103,41.0722 L 223.143,41.4022 L 222.217,41.7614 L 221.338,42.14 L 220.506,42.5477 L 219.721,42.9748 L 218.971,43.4019 L 218.268,43.8775 L 217.612,44.3434 L 217.015,44.8385 L 216.499,45.3335 L 215.995,45.8383 L 215.562,46.3722 L 215.198,46.9061 L 214.894,47.4497 L 214.636,47.9932 L 238.011,50.0608z"/>
    <path style="fill: none; fill-opacity:0; stroke-width: 0.02; stroke: #805d00" d="M 261.199 47.5856 L 260.894,47.042 L 260.543,46.5081 L 260.133,45.9839 L 259.664,45.4694 L 259.125,44.9647 L 258.551,44.4793 L 257.93,44.0037 L 257.227,43.5281 L 256.501,43.101 L 255.751,42.6739 L 254.907,42.2468 L 254.064,41.8682 L 253.138,41.4993 L 252.189,41.1596 L 251.216,40.8295 L 250.197,40.5383 L 249.154,40.2568 L 248.064,40.0045 L 246.963,39.7715 L 245.862,39.5773 L 244.702,39.4123 L 243.53,39.2764 L 242.358,39.1502 L 241.175,39.0726 L 239.991,39.0143 L 238.773,38.9755 L 237.578,38.9755 L 236.383,38.9852 L 235.188,39.0435 L 233.992,39.1308 L 232.821,39.2279 L 231.649,39.3735 L 230.501,39.5288 L 229.376,39.7327 L 228.251,39.9462 L 227.185,40.1889 L 226.119,40.4607 L 225.099,40.7325 L 224.103,41.0528 L 223.154,41.4022 L 222.229,41.7614 L 221.35,42.1303 L 220.518,42.5477 L 219.721,42.9651 L 218.971,43.4019 L 218.268,43.8678 L 217.636,44.324 L 217.026,44.8094 L 216.499,45.3238 L 216.007,45.8286 L 215.585,46.3528 L 215.198,46.8769 L 214.894,47.4205 L 214.648,47.9641"/>
    <path style="fill: #ffe9aa" d="M 206.481 55.817 L 218.175,47.3041 L 217.448,46.974 L 216.686,46.6343 L 215.913,46.3237 L 215.116,46.0616 L 214.308,45.7995 L 213.464,45.5762 L 212.597,45.3627 L 211.742,45.1977 L 210.84,45.0423 L 209.949,44.9162 L 209.035,44.8385 L 208.121,44.7705 L 207.207,44.7317 L 206.294,44.7317 L 205.368,44.7317 L 204.454,44.7997 L 203.54,44.8579 L 202.638,44.9744 L 201.747,45.1006 L 200.869,45.2753 L 199.99,45.4597 L 199.146,45.6636 L 198.303,45.9063 L 197.494,46.1781 L 196.709,46.4693 L 195.959,46.7799 L 195.209,47.1099 L 194.506,47.4691 L 193.838,47.8476 L 193.182,48.2553 L 192.573,48.6824 L 192.011,49.1095 L 191.472,49.5755 L 190.98,50.0511 L 190.511,50.5365 L 190.101,51.0315 L 189.714,51.5363 L 189.386,52.0701 L 189.093,52.604 L 188.859,53.1476 L 188.671,53.6912 L 188.507,54.2445 L 188.39,54.8075 L 188.343,55.3608 L 188.32,55.9141 L 188.355,56.4868 L 188.425,57.0498 L 188.566,57.5934 L 206.481,55.817z"/>
    <path style="fill: none; fill-opacity:0; stroke-width: 0.02; stroke: #805d00" d="M 218.116 47.2846 L 217.39,46.9352 L 216.651,46.6149 L 215.878,46.3139 L 215.07,46.0422 L 214.238,45.7801 L 213.406,45.5665 L 212.55,45.353 L 211.672,45.1782 L 210.793,45.0423 L 209.879,44.9162 L 208.977,44.8288 L 208.075,44.7705 L 207.161,44.7317 L 206.223,44.7317 L 205.333,44.7414 L 204.419,44.7997 L 203.481,44.8676 L 202.591,44.9744 L 201.712,45.1103 L 200.81,45.285 L 199.955,45.4597 L 199.111,45.6927 L 198.279,45.9354 L 197.459,46.1878 L 196.674,46.4887 L 195.924,46.7993 L 195.198,47.139 L 194.495,47.4788 L 193.803,47.8768 L 193.182,48.2747 L 192.561,48.6921 L 191.987,49.1387 L 191.46,49.5852 L 190.956,50.0608 L 190.511,50.5559 L 190.101,51.0412 L 189.714,51.5654 L 189.374,52.0799 L 189.093,52.6234 L 188.859,53.1573 L 188.648,53.7106 L 188.507,54.2639 L 188.39,54.8172 L 188.343,55.3608 L 188.32,55.9432 L 188.378,56.4965 L 188.449,57.0498 L 188.566,57.6031"/>
    <path style="fill: #ffe9aa" d="M 203.224 75.6482 L 184.406,75.357 L 184.406,75.8521 L 184.441,76.3471 L 184.535,76.8616 L 184.688,77.3567 L 184.863,77.8517 L 185.086,78.3371 L 185.379,78.8224 L 185.683,79.298 L 186.07,79.7446 L 186.48,80.2105 L 186.914,80.657 L 187.429,81.0841 L 187.945,81.5015 L 188.531,81.9092 L 189.128,82.2878 L 189.773,82.6566 L 190.464,83.0061 L 191.167,83.3264 L 191.905,83.6564 L 192.678,83.9379 L 193.475,84.2194 L 194.307,84.4718 L 195.151,84.6951 L 195.994,84.8989 L 196.885,85.0834 L 197.787,85.2387 L 198.701,85.3746 L 199.627,85.4813 L 200.552,85.5687 L 201.49,85.627 L 202.439,85.6658 L 203.399,85.6658 L 204.325,85.6367 L 205.274,85.6075 L 206.212,85.5396 L 207.137,85.4522 L 208.075,85.326 L 208.965,85.1901 L 209.879,85.0251 L 210.734,84.831 L 211.601,84.6077 L 212.445,84.3845 L 213.242,84.1224 L 214.05,83.8506 L 214.788,83.5497 L 215.527,83.2196 L 203.224,75.6482z"/>
    <path style="fill: none; fill-opacity:0; stroke-width: 0.02; stroke: #805d00" d="M 184.43 75.357 L 184.395,75.8521 L 184.465,76.3471 L 184.535,76.8422 L 184.688,77.347 L 184.863,77.842 L 185.098,78.3371 L 185.379,78.8224 L 185.707,79.2883 L 186.07,79.7446 L 186.457,80.2008 L 186.914,80.6473 L 187.394,81.0744 L 187.945,81.4918 L 188.507,81.8995 L 189.117,82.2781 L 189.749,82.6469 L 190.429,82.9964 L 191.132,83.3264 L 191.87,83.637 L 192.643,83.9282 L 193.44,84.2097 L 194.249,84.4524 L 195.092,84.6757 L 195.971,84.8892 L 196.838,85.0737 L 197.728,85.2193 L 198.642,85.3746 L 199.58,85.4619 L 200.505,85.5687 L 201.431,85.6172 L 202.38,85.6658 L 203.329,85.6658 L 204.267,85.6464 L 205.204,85.6172 L 206.141,85.5493 L 207.067,85.4522 L 208.004,85.326 L 208.895,85.1998 L 209.809,85.0251 L 210.676,84.8407 L 211.519,84.6368 L 212.363,84.4039 L 213.171,84.1418 L 213.98,83.87 L 214.741,83.5691 L 215.456,83.2585"/>
    <path style="fill: #ffe9aa" d="M 263.097 54.0018 L 279.653,56.8071 L 279.935,56.3897 L 280.145,55.9723 L 280.345,55.5355 L 280.462,55.1084 L 280.579,54.6813 L 280.602,54.2445 L 280.602,53.7883 L 280.579,53.3515 L 280.485,52.9244 L 280.356,52.4973 L 280.169,52.0604 L 279.946,51.643 L 279.688,51.2256 L 279.384,50.7985 L 279.032,50.4103 L 278.634,50.0123 L 278.189,49.6337 L 277.732,49.2454 L 277.228,48.9057 L 276.689,48.5465 L 276.115,48.2068 L 275.482,47.8962 L 274.849,47.5953 L 274.158,47.3041 L 273.467,47.042 L 272.74,46.7993 L 271.99,46.5566 L 271.205,46.3528 L 270.409,46.1489 L 269.588,45.9839 L 268.745,45.8286 L 267.913,45.7024 L 267.034,45.5859 L 266.167,45.5083 L 265.288,45.4403 L 264.398,45.4015 L 263.519,45.3627 L 262.64,45.3821 L 261.75,45.4015 L 260.859,45.45 L 259.992,45.518 L 259.114,45.5956 L 258.246,45.7024 L 257.391,45.8383 L 263.097,54.0018z"/>
    <path style="fill: none; fill-opacity:0; stroke-width: 0.02; stroke: #805d00" d="M 278.13 58.3893 L 279.642,56.8265 L 279.923,56.3994 L 280.145,55.9917 L 280.321,55.5549 L 280.462,55.1181 L 280.556,54.691 L 280.591,54.2639 L 280.602,53.8174 L 280.567,53.3709 L 280.485,52.9341 L 280.356,52.507 L 280.169,52.0799 L 279.946,51.6528 L 279.7,51.2354 L 279.396,50.818 L 279.032,50.4297 L 278.634,50.022 L 278.224,49.6434 L 277.743,49.2746 L 277.24,48.9154 L 276.701,48.5562 L 276.127,48.2359 L 275.517,47.9253 L 274.873,47.605 L 274.205,47.3235 L 273.49,47.042 L 272.764,46.7993 L 272.014,46.5663 L 271.229,46.3625 L 270.432,46.1683 L 269.624,45.9936 L 268.792,45.8286 L 267.936,45.7024 L 267.093,45.5859 L 266.226,45.5083 L 265.347,45.45 L 264.456,45.4015 L 263.566,45.3627 L 262.664,45.3627 L 261.785,45.4015 L 260.894,45.45 L 260.016,45.5083 L 259.149,45.5859 L 258.293,45.7024 L 257.438,45.8286"/>
    <path style="fill: #ffe9aa" d="M 265.452 65.4172 L 284.094,68.9602 L 284.469,68.504 L 284.774,68.038 L 285.055,67.5527 L 285.277,67.0673 L 285.43,66.582 L 285.535,66.0966 L 285.57,65.5919 L 285.57,65.1065 L 285.5,64.6115 L 285.395,64.1067 L 285.207,63.6214 L 284.985,63.1554 L 284.692,62.6701 L 284.375,62.2042 L 283.977,61.7285 L 283.532,61.2917 L 283.051,60.8646 L 282.501,60.4278 L 281.915,60.0201 L 265.452,65.4172z"/>
    <path style="fill: none; fill-opacity:0; stroke-width: 0.02; stroke: #805d00" d="M 281.727 70.5715 L 284.071,68.9893 L 284.422,68.5234 L 284.774,68.038 L 285.043,67.5624 L 285.266,67.0673 L 285.418,66.582 L 285.535,66.0966 L 285.582,65.5919 L 285.57,65.1065 L 285.5,64.5921 L 285.371,64.1067 L 285.207,63.6117 L 284.985,63.1263 L 284.692,62.6507 L 284.364,62.1848 L 283.953,61.7188 L 283.52,61.2723 L 283.004,60.8258 L 282.477,60.3987 L 281.88,59.9813 L 278.13,58.3893"/>
    <path style="fill: #ffe9aa" d="M 264.667 74.7843 L 258.785,88.2672 L 259.653,88.4808 L 260.531,88.6652 L 261.41,88.8302 L 262.324,88.9467 L 263.214,89.0244 L 264.105,89.0632 L 265.031,89.0729 L 265.933,89.0244 L 266.823,88.9661 L 267.725,88.8496 L 268.604,88.7138 L 269.483,88.539 L 270.35,88.3158 L 271.205,88.0634 L 272.026,87.7819 L 272.846,87.4616 L 273.643,87.1218 L 274.416,86.7238 L 275.166,86.3064 L 275.88,85.8696 L 276.56,85.394 L 277.216,84.8989 L 277.849,84.3651 L 278.446,83.8118 L 278.985,83.2488 L 279.501,82.6469 L 279.993,82.0354 L 280.427,81.385 L 280.813,80.7444 L 281.177,80.0649 L 281.481,79.3854 L 281.762,78.6962 L 281.985,77.9876 L 282.172,77.2693 L 282.29,76.5607 L 282.395,75.8327 L 282.419,75.1047 L 282.419,74.3766 L 282.372,73.6583 L 282.278,72.9303 L 282.137,72.212 L 281.962,71.4937 L 281.727,70.7948 L 264.667,74.7843z"/>
    <path style="fill: none; fill-opacity:0; stroke-width: 0.02; stroke: #805d00" d="M 258.832 88.2866 L 259.711,88.4905 L 260.578,88.6943 L 261.469,88.8399 L 262.359,88.9564 L 263.273,89.0244 L 264.164,89.0729 L 265.066,89.0826 L 265.968,89.0244 L 266.882,88.9661 L 267.772,88.8496 L 268.651,88.7138 L 269.53,88.5293 L 270.397,88.2964 L 271.241,88.0537 L 272.084,87.7625 L 272.893,87.4519 L 273.678,87.0927 L 274.439,86.7238 L 275.189,86.2967 L 275.904,85.8502 L 276.583,85.3746 L 277.24,84.8795 L 277.872,84.3553 L 278.458,83.8021 L 279.021,83.2099 L 279.513,82.6275 L 280.005,81.9869 L 280.438,81.3656 L 280.825,80.7153 L 281.177,80.0455 L 281.493,79.3563 L 281.774,78.6477 L 281.985,77.9585 L 282.172,77.2499 L 282.313,76.5316 L 282.395,75.8036 L 282.419,75.0755 L 282.419,74.3475 L 282.36,73.6195 L 282.278,72.8915 L 282.126,72.1635 L 281.926,71.4646 L 281.727,70.7657"/>
    <path style="fill: #ffe9aa" d="M 190.148 67.1159 L 189.257,57.972 L 188.601,58.0205 L 187.98,58.0787 L 187.324,58.1758 L 186.691,58.2826 L 186.07,58.4379 L 185.461,58.5835 L 184.863,58.7679 L 184.277,58.9815 L 183.692,59.195 L 183.141,59.4377 L 182.602,59.7192 L 182.086,60.0104 L 181.583,60.3113 L 181.126,60.6316 L 180.669,60.9714 L 180.247,61.3111 L 179.848,61.68 L 179.485,62.078 L 179.122,62.4565 L 178.806,62.8739 L 178.536,63.301 L 178.278,63.7282 L 178.032,64.1553 L 177.845,64.6115 L 177.693,65.058 L 177.552,65.5239 L 177.446,65.9704 L 177.4,66.4461 L 177.364,66.912 L 177.364,67.3682 L 177.4,67.8439 L 177.47,68.3098 L 177.575,68.766 L 177.693,69.232 L 177.868,69.6785 L 178.056,70.1153 L 178.29,70.5715 L 178.548,70.9889 L 178.841,71.4063 L 179.157,71.814 L 179.52,72.212 L 179.884,72.5809 L 180.294,72.9497 L 180.727,73.3089 L 181.172,73.6583 L 181.653,73.9689 L 182.157,74.2699 L 182.672,74.5417 L 183.223,74.8232 L 183.762,75.0658 L 184.348,75.2891 L 190.148,67.1159z"/>
    <path style="fill: none; fill-opacity:0; stroke-width: 0.02; stroke: #805d00" d="M 189.257 57.972 L 188.636,58.0205 L 187.992,58.0787 L 187.359,58.1758 L 186.75,58.2826 L 186.129,58.4185 L 185.519,58.5641 L 184.934,58.7485 L 184.359,58.9426 L 183.785,59.1659 L 183.258,59.4086 L 182.707,59.661 L 182.204,59.9425 L 181.711,60.224 L 181.243,60.5443 L 180.774,60.8743 L 180.364,61.2141 L 179.954,61.5732 L 179.591,61.9518 L 179.239,62.3304 L 178.935,62.7283 L 178.642,63.1263 L 178.36,63.5437 L 178.126,63.9708 L 177.915,64.3979 L 177.739,64.8542 L 177.61,65.3007 L 177.482,65.7472 L 177.411,66.2034 L 177.364,66.6693 L 177.364,67.1256 L 177.364,67.5818 L 177.435,68.038 L 177.505,68.504 L 177.61,68.9408 L 177.763,69.3873 L 177.915,69.8338 L 178.126,70.2706 L 178.384,70.6977 L 178.642,71.1151 L 178.935,71.5325 L 179.263,71.9208 L 179.602,72.2994 L 179.966,72.6876 L 180.364,73.0274 L 180.798,73.3768 L 181.254,73.7069 L 181.723,74.0272 L 182.227,74.299 L 182.719,74.5805 L 183.258,74.8329 L 183.809,75.0755 L 184.371,75.3085"/>
    <path style="fill: #ffe9aa" d="M 237.613 81.8218 L 210.945,82.8896 L 211.121,83.4235 L 211.344,83.9477 L 211.648,84.4718 L 212.035,84.9766 L 212.445,85.5008 L 212.949,85.9958 L 213.499,86.4812 L 214.12,86.9568 L 214.812,87.4227 L 215.55,87.879 L 216.323,88.2964 L 217.179,88.7235 L 218.069,89.1311 L 219.018,89.5097 L 220.014,89.8689 L 221.045,90.2086 L 222.147,90.5289 L 223.248,90.8299 L 224.408,91.0919 L 225.591,91.3637 L 226.833,91.5773 L 228.075,91.7908 L 229.329,91.9559 L 230.641,92.1209 L 231.954,92.2471 L 233.278,92.3538 L 234.59,92.4218 L 235.937,92.4703 L 237.297,92.4897 L 238.632,92.48 L 239.991,92.4412 L 241.327,92.3733 L 242.651,92.3053 L 243.964,92.1791 L 245.276,92.0529 L 246.541,91.8782 L 247.807,91.6841 L 249.037,91.4608 L 250.256,91.2181 L 251.427,90.9658 L 252.552,90.6745 L 253.653,90.3639 L 254.72,90.0339 L 255.739,89.6844 L 256.712,89.3156 L 257.614,88.9079 L 258.493,88.5099 L 259.301,88.0731 L 260.074,87.6363 L 260.789,87.1898 L 261.422,86.7238 L 262.008,86.2385 L 262.547,85.7434 L 263.004,85.2387 L 237.613,81.8218z"/>
    <path style="fill: none; fill-opacity:0; stroke-width: 0.02; stroke: #805d00" d="M 210.969 82.8993 L 211.121,83.4332 L 211.355,83.9477 L 211.648,84.4815 L 212.035,85.0057 L 212.468,85.5105 L 212.949,85.9958 L 213.511,86.4812 L 214.12,86.9665 L 214.812,87.4227 L 215.55,87.879 L 216.323,88.2964 L 217.179,88.7235 L 218.093,89.1311 L 219.018,89.5097 L 220.014,89.8689 L 221.045,90.2086 L 222.147,90.5289 L 223.248,90.8299 L 224.408,91.0919 L 225.591,91.3637 L 226.81,91.5773 L 228.052,91.7908 L 229.317,91.9559 L 230.63,92.1112 L 231.93,92.2471 L 233.254,92.3441 L 234.578,92.4218 L 235.914,92.4703 L 237.261,92.4897 L 238.609,92.48 L 239.945,92.4412 L 241.28,92.3733 L 242.628,92.3053 L 243.94,92.1791 L 245.229,92.0432 L 246.518,91.8782 L 247.772,91.6938 L 249.002,91.4608 L 250.209,91.2278 L 251.369,90.9658 L 252.517,90.6745 L 253.618,90.3736 L 254.673,90.0436 L 255.692,89.6941 L 256.653,89.3253 L 257.59,88.937 L 258.457,88.5196 L 259.278,88.1022 L 260.051,87.646 L 260.742,87.2092 L 261.398,86.7238 L 261.984,86.2482 L 262.5,85.7531 L 262.98,85.2581"/>
  </g>
  <text font-size="8.28604" style="fill: #000000;text-anchor:start;font-family:sans-serif;font-style:normal;font-weight:normal" x="218.577" y="66.7263">
    <tspan x="218.577" y="66.7263">Internet</tspan>
  </text>
  <line style="fill: none; fill-opacity:0; stroke-width: 0.02; stroke: #000000" x1="211.857" y1="84.7559" x2="133.995" y2="146.433"/>
  <line style="fill: none; fill-opacity:0; stroke-width: 0.02; stroke: #000000" x1="259.156" y1="88.3452" x2="322.773" y2="148.066"/>
  <text font-size="7.15716" style="fill: #000000;text-anchor:start;font-family:sans-serif;font-style:normal;font-weight:700" x="160.524" y="160.408">
    <tspan x="160.524" y="160.408">NAT</tspan>
  </text>
  <text font-size="7.15716" style="fill: #000000;text-anchor:start;font-family:sans-serif;font-style:normal;font-weight:700" x="280.687" y="164.165">
    <tspan x="280.687" y="164.165">NAT</tspan>
  </text>
</svg>
